<?xml version="1.0" encoding="UTF-8"?>
<svg id="Layer_2" data-name="Layer 2" xmlns="http://www.w3.org/2000/svg" xmlns:xlink="http://www.w3.org/1999/xlink" viewBox="0 0 353.66 218.59">
  <defs>
    <style>
      .cls-1 {
        fill: url(#linear-gradient);
      }

      .cls-1, .cls-2, .cls-3 {
        stroke-width: 0px;
      }

      .cls-2 {
        fill: url(#linear-gradient-2);
      }

      .cls-3 {
        fill: #37b34a;
      }
    </style>
    <linearGradient id="linear-gradient" x1="158.22" y1="113.83" x2="289.4" y2="55.94" gradientTransform="translate(-19.8 -13.77) rotate(2.34)" gradientUnits="userSpaceOnUse">
      <stop offset="0" stop-color="#00a69c"/>
      <stop offset="1" stop-color="#37b34a"/>
    </linearGradient>
    <linearGradient id="linear-gradient-2" x1="102.75" y1="63.31" x2="236.4" y2="63.31" gradientUnits="userSpaceOnUse">
      <stop offset="0" stop-color="#37b34a"/>
      <stop offset="1" stop-color="#8bc53f"/>
    </linearGradient>
  </defs>
  <g id="Layer_1-2" data-name="Layer 1">
    <g>
      <g>
        <path class="cls-1" d="m243.83,19.79l-.81-3.92c-.42-2.02-3.32-1.99-3.69.04-3.95,21.79-11.47,44.46-29.27,66.08-1.21,1.47-3.36,1.7-4.86.53l-19.34-15.17c-2.22-1.74-5.48-.26-5.65,2.56-1.3,22.25-8.4,45.71-22.72,67.76-1.6,2.46.38,5.69,3.29,5.37,2.39-.26,4.74-.64,7.01-1.15,49.78-11.08,85.19-72.28,76.04-122.1Z"/>
        <path class="cls-2" d="m180.68,45.82l21.25,12.05c1.91,1.08,4.31.77,5.86-.79,14.49-14.65,23-33.17,28.39-50.05.93-2.93-1.05-5.97-4.1-6.32-48.9-5.67-114.85,23.5-127.13,69.66-4.45,16.72-2.38,37.67,8.39,54.05,1.62,2.46,5.03,2.94,7.27,1.03,20.51-17.57,42.08-47.77,53.12-77.09,1.06-2.8,4.36-4,6.97-2.52Z"/>
      </g>
      <g>
        <path class="cls-3" d="m42.62,168.47v49.55h-5.8l-29.73-36.95v36.95H0v-49.55h5.8l29.73,36.95v-36.95h7.08Z"/>
        <path class="cls-3" d="m53.45,193.24c0-14.51,11.18-25.34,26.4-25.34s26.26,10.76,26.26,25.34-11.18,25.34-26.26,25.34-26.4-10.83-26.4-25.34Zm45.59,0c0-10.97-8.21-19.04-19.18-19.04s-19.33,8.07-19.33,19.04,8.21,19.04,19.33,19.04,19.18-8.07,19.18-19.04Z"/>
        <path class="cls-3" d="m158.43,168.47l-21.73,49.55h-7.01l-21.8-49.55h7.65l17.84,40.7,17.98-40.7h7.08Z"/>
        <path class="cls-3" d="m194.74,205.63h-26.33l-5.45,12.39h-7.29l22.44-49.55h7.01l22.51,49.55h-7.43l-5.45-12.39Zm-2.48-5.66l-10.69-24.28-10.69,24.28h21.38Z"/>
        <path class="cls-3" d="m222.35,174.62h-16.99v-6.16h40.99v6.16h-16.99v43.39h-7.01v-43.39Z"/>
        <path class="cls-3" d="m249.32,193.24c0-14.51,11.18-25.34,26.4-25.34s26.26,10.76,26.26,25.34-11.18,25.34-26.26,25.34-26.4-10.83-26.4-25.34Zm45.59,0c0-10.97-8.21-19.04-19.18-19.04s-19.33,8.07-19.33,19.04,8.21,19.04,19.33,19.04,19.18-8.07,19.18-19.04Z"/>
        <path class="cls-3" d="m345.95,218.02l-10.69-15.22c-.99.07-2.05.14-3.11.14h-12.25v15.08h-7.08v-49.55h19.33c12.88,0,20.67,6.51,20.67,17.27,0,7.65-3.96,13.17-10.9,15.64l11.75,16.64h-7.72Zm-.21-32.28c0-7.08-4.74-11.11-13.8-11.11h-12.03v22.3h12.03c9.06,0,13.8-4.11,13.8-11.18Z"/>
      </g>
    </g>
  </g>
</svg>